<svg width="140" height="101" viewBox="0 0 140 101" fill="none" xmlns="http://www.w3.org/2000/svg">
<g filter="url(#filter0_d_2419_1494)">
<rect x="3" y="3" width="130" height="66" rx="8" fill="white"/>
</g>
<path d="M52.5125 86.12V87.44H57.7325V86.12H52.5125ZM52.6775 90.395V91.7H57.5825V90.395H52.6775ZM52.1975 95.675L52.5725 97.025C54.0725 96.575 56.0975 95.99 57.9875 95.42L57.8075 94.16C55.7525 94.745 53.6225 95.33 52.1975 95.675ZM59.6975 89.495H64.1825V90.755H59.6975V89.495ZM59.6975 91.865H64.1825V93.125H59.6975V91.865ZM59.6975 87.14H64.1825V88.385H59.6975V87.14ZM58.3775 85.97V94.325H65.5775V85.97H58.3775ZM62.2475 93.77V97.505C62.2475 98.78 62.5175 99.185 63.7325 99.185C63.9725 99.185 64.8125 99.185 65.0675 99.185C66.0575 99.185 66.3875 98.66 66.5225 96.725C66.1475 96.635 65.5925 96.41 65.3075 96.2C65.2775 97.715 65.2175 97.955 64.9025 97.955C64.7225 97.955 64.1075 97.955 63.9725 97.955C63.6575 97.955 63.5975 97.895 63.5975 97.49V93.77H62.2475ZM59.6375 94.085C59.4275 96.095 58.9025 97.46 56.1125 98.195C56.3975 98.465 56.7575 99.02 56.9075 99.365C60.0575 98.405 60.7775 96.635 61.0325 94.085H59.6375ZM54.4925 86.645V95.69L55.8575 95.465V86.645H54.4925ZM76.6025 86.705C77.9525 88.52 80.5025 90.575 82.8125 91.775C83.0675 91.34 83.4125 90.86 83.7575 90.5C81.3875 89.495 78.8675 87.53 77.2625 85.31H75.7925C74.6525 87.17 72.1925 89.405 69.6125 90.68C69.9275 90.98 70.3175 91.49 70.4975 91.835C72.9875 90.5 75.3575 88.475 76.6025 86.705ZM72.8675 89.885V91.145H80.3975V89.885H72.8675ZM70.9925 92.915V94.16H82.2725V92.915H70.9925ZM70.2725 97.58V98.81H83.0675V97.58H70.2725ZM75.8375 90.38V98.21H77.3375V90.38H75.8375ZM72.1025 94.835C72.6725 95.66 73.2575 96.8 73.4525 97.52L74.6675 96.98C74.4575 96.26 73.8425 95.165 73.2425 94.37L72.1025 94.835ZM79.8575 94.355C79.4975 95.195 78.8375 96.335 78.3125 97.07L79.3775 97.52C79.9325 96.845 80.6075 95.81 81.2075 94.88L79.8575 94.355Z" fill="black"/>
<circle cx="100.5" cy="35.5" r="13.5" stroke="#666666" stroke-width="2"/>
<path d="M99.39 42H101.595V39.69H104.49V38.58H101.595V37.62H104.49V36.495H102.075L105.6 30.93H103.05L101.7 33.63C101.19 34.725 100.98 35.16 100.56 35.985H100.47C100.065 35.16 99.885 34.77 99.33 33.63L97.95 30.93H95.355L98.895 36.495H96.465V37.62H99.39V38.58H96.465V39.69H99.39V42Z" fill="#666666"/>
<path d="M48.39 42H50.595V39.69H53.49V38.58H50.595V37.62H53.49V36.495H51.075L54.6 30.93H52.05L50.7 33.63C50.19 34.725 49.98 35.16 49.56 35.985H49.47C49.065 35.16 48.885 34.77 48.33 33.63L46.95 30.93H44.355L47.895 36.495H45.465V37.62H48.39V38.58H45.465V39.69H48.39V42Z" fill="#666666"/>
<rect x="23" y="22" width="54" height="27" stroke="#666666" stroke-width="2"/>
<defs>
<filter id="filter0_d_2419_1494" x="0" y="0" width="140" height="76" filterUnits="userSpaceOnUse" color-interpolation-filters="sRGB">
<feFlood flood-opacity="0" result="BackgroundImageFix"/>
<feColorMatrix in="SourceAlpha" type="matrix" values="0 0 0 0 0 0 0 0 0 0 0 0 0 0 0 0 0 0 127 0" result="hardAlpha"/>
<feOffset dx="2" dy="2"/>
<feGaussianBlur stdDeviation="2.5"/>
<feComposite in2="hardAlpha" operator="out"/>
<feColorMatrix type="matrix" values="0 0 0 0 0 0 0 0 0 0 0 0 0 0 0 0 0 0 0.12 0"/>
<feBlend mode="normal" in2="BackgroundImageFix" result="effect1_dropShadow_2419_1494"/>
<feBlend mode="normal" in="SourceGraphic" in2="effect1_dropShadow_2419_1494" result="shape"/>
</filter>
</defs>
</svg>
