<svg width="88" height="87" viewBox="0 0 88 87" fill="none" xmlns="http://www.w3.org/2000/svg">
<circle opacity="0.5" cx="20" cy="20" r="19" stroke="white" stroke-width="2"/>
<circle opacity="0.5" cx="68" cy="20" r="19" stroke="white" stroke-width="2"/>
<circle opacity="0.5" cx="20" cy="67" r="19" stroke="white" stroke-width="2"/>
<circle opacity="0.5" cx="68" cy="67" r="19" stroke="white" stroke-width="2"/>
<path opacity="0.5" d="M8.96826 14.4038H14.1147V15.8813H10.479V18.8115C10.5952 18.8005 10.7142 18.7949 10.8359 18.7949C11.9593 18.7949 12.8835 19.138 13.6084 19.8242C14.3333 20.5049 14.6958 21.3737 14.6958 22.4307C14.6958 23.5208 14.3361 24.409 13.6167 25.0952C12.9028 25.7759 11.9759 26.1162 10.8359 26.1162C9.89518 26.1162 8.9821 25.8893 8.09668 25.4355V23.7256C8.93229 24.2679 9.74854 24.5391 10.5454 24.5391C11.2427 24.5391 11.8265 24.3371 12.2969 23.9331C12.7728 23.5236 13.0107 23.0228 13.0107 22.4307C13.0107 21.8164 12.7534 21.3045 12.2388 20.895C11.7241 20.48 11.0822 20.2725 10.313 20.2725C9.65446 20.2725 9.20622 20.3278 8.96826 20.4385V14.4038ZM20.0664 14.2544C21.1289 14.2544 22.006 14.8133 22.6978 15.9312C23.395 17.0435 23.7437 18.4574 23.7437 20.1729C23.7437 21.9326 23.395 23.3631 22.6978 24.4644C22.006 25.5656 21.1068 26.1162 20 26.1162C18.8766 26.1162 17.9746 25.5767 17.2939 24.4976C16.6133 23.4185 16.2729 21.988 16.2729 20.2061C16.2729 18.4463 16.6243 17.0158 17.3271 15.9146C18.0299 14.8078 18.943 14.2544 20.0664 14.2544ZM20.083 15.8315H20C19.3636 15.8315 18.8573 16.2244 18.481 17.0103C18.1102 17.7905 17.9248 18.8503 17.9248 20.1895C17.9248 21.5618 18.1074 22.6382 18.4727 23.4185C18.8379 24.1987 19.3415 24.5889 19.9834 24.5889C20.6253 24.5889 21.1317 24.1987 21.5024 23.4185C21.8732 22.6382 22.0586 21.5785 22.0586 20.2393C22.0586 18.8945 21.8787 17.8237 21.519 17.0269C21.1649 16.23 20.6862 15.8315 20.083 15.8315ZM28.5664 14.2544C29.6289 14.2544 30.506 14.8133 31.1978 15.9312C31.895 17.0435 32.2437 18.4574 32.2437 20.1729C32.2437 21.9326 31.895 23.3631 31.1978 24.4644C30.506 25.5656 29.6068 26.1162 28.5 26.1162C27.3766 26.1162 26.4746 25.5767 25.7939 24.4976C25.1133 23.4185 24.7729 21.988 24.7729 20.2061C24.7729 18.4463 25.1243 17.0158 25.8271 15.9146C26.5299 14.8078 27.443 14.2544 28.5664 14.2544ZM28.583 15.8315H28.5C27.8636 15.8315 27.3573 16.2244 26.981 17.0103C26.6102 17.7905 26.4248 18.8503 26.4248 20.1895C26.4248 21.5618 26.6074 22.6382 26.9727 23.4185C27.3379 24.1987 27.8415 24.5889 28.4834 24.5889C29.1253 24.5889 29.6317 24.1987 30.0024 23.4185C30.3732 22.6382 30.5586 21.5785 30.5586 20.2393C30.5586 18.8945 30.3787 17.8237 30.019 17.0269C29.6649 16.23 29.1862 15.8315 28.583 15.8315Z" fill="white"/>
<path opacity="0.5" d="M58.6865 14.4038H60.3467V26H58.6865V14.4038ZM68.0664 14.2544C69.1289 14.2544 70.006 14.8133 70.6978 15.9312C71.395 17.0435 71.7437 18.4574 71.7437 20.1729C71.7437 21.9326 71.395 23.3631 70.6978 24.4644C70.006 25.5656 69.1068 26.1162 68 26.1162C66.8766 26.1162 65.9746 25.5767 65.2939 24.4976C64.6133 23.4185 64.2729 21.988 64.2729 20.2061C64.2729 18.4463 64.6243 17.0158 65.3271 15.9146C66.0299 14.8078 66.943 14.2544 68.0664 14.2544ZM68.083 15.8315H68C67.3636 15.8315 66.8573 16.2244 66.481 17.0103C66.1102 17.7905 65.9248 18.8503 65.9248 20.1895C65.9248 21.5618 66.1074 22.6382 66.4727 23.4185C66.8379 24.1987 67.3415 24.5889 67.9834 24.5889C68.6253 24.5889 69.1317 24.1987 69.5024 23.4185C69.8732 22.6382 70.0586 21.5785 70.0586 20.2393C70.0586 18.8945 69.8787 17.8237 69.519 17.0269C69.1649 16.23 68.6862 15.8315 68.083 15.8315ZM76.5664 14.2544C77.6289 14.2544 78.506 14.8133 79.1978 15.9312C79.895 17.0435 80.2437 18.4574 80.2437 20.1729C80.2437 21.9326 79.895 23.3631 79.1978 24.4644C78.506 25.5656 77.6068 26.1162 76.5 26.1162C75.3766 26.1162 74.4746 25.5767 73.7939 24.4976C73.1133 23.4185 72.7729 21.988 72.7729 20.2061C72.7729 18.4463 73.1243 17.0158 73.8271 15.9146C74.5299 14.8078 75.443 14.2544 76.5664 14.2544ZM76.583 15.8315H76.5C75.8636 15.8315 75.3573 16.2244 74.981 17.0103C74.6102 17.7905 74.4248 18.8503 74.4248 20.1895C74.4248 21.5618 74.6074 22.6382 74.9727 23.4185C75.3379 24.1987 75.8415 24.5889 76.4834 24.5889C77.1253 24.5889 77.6317 24.1987 78.0024 23.4185C78.3732 22.6382 78.5586 21.5785 78.5586 20.2393C78.5586 18.8945 78.3787 17.8237 78.019 17.0269C77.6649 16.23 77.1862 15.8315 76.583 15.8315Z" fill="white"/>
<path opacity="0.5" d="M12.7183 61.4038H17.8647V62.8813H14.229V65.8115C14.3452 65.8005 14.4642 65.7949 14.5859 65.7949C15.7093 65.7949 16.6335 66.138 17.3584 66.8242C18.0833 67.5049 18.4458 68.3737 18.4458 69.4307C18.4458 70.5208 18.0861 71.409 17.3667 72.0952C16.6528 72.7759 15.7259 73.1162 14.5859 73.1162C13.6452 73.1162 12.7321 72.8893 11.8467 72.4355V70.7256C12.6823 71.2679 13.4985 71.5391 14.2954 71.5391C14.9927 71.5391 15.5765 71.3371 16.0469 70.9331C16.5228 70.5236 16.7607 70.0228 16.7607 69.4307C16.7607 68.8164 16.5034 68.3045 15.9888 67.895C15.4741 67.48 14.8322 67.2725 14.063 67.2725C13.4045 67.2725 12.9562 67.3278 12.7183 67.4385V61.4038ZM23.8164 61.2544C24.8789 61.2544 25.756 61.8133 26.4478 62.9312C27.145 64.0435 27.4937 65.4574 27.4937 67.1729C27.4937 68.9326 27.145 70.3631 26.4478 71.4644C25.756 72.5656 24.8568 73.1162 23.75 73.1162C22.6266 73.1162 21.7246 72.5767 21.0439 71.4976C20.3633 70.4185 20.0229 68.988 20.0229 67.2061C20.0229 65.4463 20.3743 64.0158 21.0771 62.9146C21.7799 61.8078 22.693 61.2544 23.8164 61.2544ZM23.833 62.8315H23.75C23.1136 62.8315 22.6073 63.2244 22.231 64.0103C21.8602 64.7905 21.6748 65.8503 21.6748 67.1895C21.6748 68.5618 21.8574 69.6382 22.2227 70.4185C22.5879 71.1987 23.0915 71.5889 23.7334 71.5889C24.3753 71.5889 24.8817 71.1987 25.2524 70.4185C25.6232 69.6382 25.8086 68.5785 25.8086 67.2393C25.8086 65.8945 25.6287 64.8237 25.269 64.0269C24.9149 63.23 24.4362 62.8315 23.833 62.8315Z" fill="white"/>
<path opacity="0.5" d="M62.4365 61.4038H64.0967V73H62.4365V61.4038ZM71.8164 61.2544C72.8789 61.2544 73.756 61.8133 74.4478 62.9312C75.145 64.0435 75.4937 65.4574 75.4937 67.1729C75.4937 68.9326 75.145 70.3631 74.4478 71.4644C73.756 72.5656 72.8568 73.1162 71.75 73.1162C70.6266 73.1162 69.7246 72.5767 69.0439 71.4976C68.3633 70.4185 68.0229 68.988 68.0229 67.2061C68.0229 65.4463 68.3743 64.0158 69.0771 62.9146C69.7799 61.8078 70.693 61.2544 71.8164 61.2544ZM71.833 62.8315H71.75C71.1136 62.8315 70.6073 63.2244 70.231 64.0103C69.8602 64.7905 69.6748 65.8503 69.6748 67.1895C69.6748 68.5618 69.8574 69.6382 70.2227 70.4185C70.5879 71.1987 71.0915 71.5889 71.7334 71.5889C72.3753 71.5889 72.8817 71.1987 73.2524 70.4185C73.6232 69.6382 73.8086 68.5785 73.8086 67.2393C73.8086 65.8945 73.6287 64.8237 73.269 64.0269C72.9149 63.23 72.4362 62.8315 71.833 62.8315Z" fill="white"/>
</svg>
