<svg width="94" height="79" viewBox="0 0 94 79" fill="none" xmlns="http://www.w3.org/2000/svg">
<circle opacity="0.5" cx="44" cy="53" r="25" fill="white" stroke="white" stroke-width="2"/>
<g opacity="0.5">
<mask id="path-2-inside-1_1912_1304" fill="white">
<rect x="23" y="48" width="42" height="10" rx="1"/>
</mask>
<rect x="23" y="48" width="42" height="10" rx="1" stroke="#333333" stroke-width="4" mask="url(#path-2-inside-1_1912_1304)"/>
</g>
<g opacity="0.5">
<path d="M75.8333 38V38C81.989 46.9257 82.1699 58.6783 76.2919 67.7893L75.8333 68.5" stroke="white" stroke-width="3" stroke-linejoin="round" stroke-dasharray="0 0.1"/>
<line x1="80.4418" y1="66.0466" x2="76.0466" y2="68.5582" stroke="white" stroke-width="3" stroke-linecap="round" stroke-dasharray="0.1 0.1"/>
</g>
<path opacity="0.5" d="M12.8217 4.744H11.2817C11.3237 4.982 11.3657 5.556 11.3657 5.836C11.3657 6.438 11.3237 8.482 11.3237 10.078C11.3237 11.702 11.4077 13.648 11.4077 14.418C11.4077 14.894 11.2117 15.062 10.9177 15.062C10.4557 15.062 9.61573 14.586 9.61573 14.04C9.61573 13.368 10.6237 12.514 11.9397 12.01C13.0877 11.548 14.2777 11.282 15.4957 11.282C16.7697 11.282 17.7497 11.884 17.7497 12.976C17.7497 14.152 16.7277 14.768 15.5377 14.992C15.0337 15.09 14.4317 15.09 13.8577 15.09L14.3617 16.504C14.8937 16.476 15.5097 16.448 16.1397 16.308C18.1977 15.804 19.1777 14.656 19.1777 12.976C19.1777 11.184 17.6097 10.078 15.5097 10.078C14.4177 10.078 13.0177 10.316 11.7717 10.792C9.93773 11.464 8.24373 12.808 8.24373 14.096C8.24373 15.454 10.1057 16.56 11.3097 16.56C12.1497 16.56 12.6817 16.126 12.6817 14.642C12.6817 13.802 12.6117 11.506 12.6117 10.022C12.6117 8.636 12.6677 6.76 12.7237 5.822C12.7377 5.472 12.7797 4.996 12.8217 4.744ZM17.0217 6.284L16.3917 7.348C17.2737 7.796 18.9537 8.804 19.6397 9.42L20.3257 8.286C19.6117 7.74 18.0437 6.802 17.0217 6.284ZM8.53773 7.152L8.56573 8.496C9.04173 8.552 9.57373 8.566 10.4277 8.566C11.6737 8.566 13.9417 8.286 15.4537 7.936L15.4117 6.564C13.9977 6.984 11.7997 7.264 10.3857 7.264C9.88173 7.264 9.33573 7.25 8.53773 7.152ZM21.8237 8.538L22.4677 10.092C23.7277 9.56 27.1857 8.09 29.3837 8.09C31.1757 8.09 32.1837 9.182 32.1837 10.582C32.1837 13.256 29.0477 14.362 25.3237 14.46L25.9677 15.93C30.5457 15.678 33.7517 13.886 33.7517 10.61C33.7517 8.16 31.8337 6.76 29.4257 6.76C27.3817 6.76 24.5817 7.768 23.4477 8.132C22.9297 8.286 22.3417 8.454 21.8237 8.538ZM39.7997 4.87L38.2737 4.814C38.2597 5.192 38.2177 5.668 38.1617 6.13C37.9797 7.404 37.7417 9.322 37.7417 10.638C37.7417 11.562 37.8257 12.374 37.9097 12.92L39.2677 12.822C39.1837 12.136 39.1697 11.674 39.2257 11.198C39.3517 9.364 40.8917 6.844 42.5997 6.844C43.9437 6.844 44.6857 8.272 44.6857 10.456C44.6857 13.914 42.3897 15.062 39.3097 15.524L40.1497 16.798C43.7197 16.154 46.1557 14.362 46.1557 10.442C46.1557 7.446 44.7417 5.556 42.8517 5.556C41.1577 5.556 39.7997 7.054 39.1837 8.342C39.2677 7.446 39.5477 5.752 39.7997 4.87ZM52.4137 9.434C51.7137 9.434 51.1537 9.994 51.1537 10.68C51.1537 11.38 51.7137 11.94 52.4137 11.94C53.0997 11.94 53.6737 11.38 53.6737 10.68C53.6737 9.994 53.0997 9.434 52.4137 9.434ZM62.6983 9.686H59.7163V10.918H61.3963V14.726H62.6983V9.686ZM62.6983 14.152H61.4943C60.8363 14.712 60.0943 15.272 59.4643 15.692L60.1363 17.064C60.8643 16.448 61.4943 15.874 62.1243 15.3C63.0343 16.406 64.2803 16.854 66.1003 16.924C67.7103 16.98 70.5943 16.952 72.2043 16.882C72.2603 16.49 72.4703 15.846 72.6243 15.538C70.8603 15.664 67.6963 15.706 66.1143 15.636C64.5183 15.58 63.3283 15.146 62.6983 14.152ZM59.7863 5.304C60.6403 5.948 61.6203 6.914 62.0263 7.586L63.0903 6.732C62.6283 6.06 61.6203 5.136 60.7663 4.52L59.7863 5.304ZM65.0363 4.828V6.06H72.0503V4.828H65.0363ZM65.1763 7.726V8.916H70.6503V7.726H65.1763ZM64.4063 4.828V8.076C64.4063 9.868 64.2663 12.304 62.9223 14.026C63.2303 14.166 63.8043 14.53 64.0143 14.754C65.4563 12.892 65.6803 10.078 65.6803 8.09V4.828H64.4063ZM70.3143 7.726V7.95C69.6143 11.002 67.5003 13.116 64.9663 13.956C65.2323 14.222 65.5683 14.74 65.7223 15.076C68.5643 13.956 70.8043 11.744 71.6443 7.964L70.8043 7.684L70.5663 7.726H70.3143ZM66.9403 8.552L65.7783 8.832C66.8003 11.982 68.6623 14.166 71.7143 15.16C71.9103 14.796 72.2743 14.278 72.5683 14.012C69.6703 13.228 67.8223 11.24 66.9403 8.552ZM84.6783 5.024V13.242C84.6783 13.424 84.6223 13.48 84.4543 13.48C84.2583 13.494 83.6703 13.494 83.0403 13.466C83.2223 13.844 83.4183 14.446 83.4743 14.838C84.3703 14.838 85.0143 14.81 85.4203 14.572C85.8683 14.334 85.9803 13.928 85.9803 13.27V5.024H84.6783ZM80.9963 5.024V17.176H82.2843V6.27H85.3083V5.024H80.9963ZM74.0663 6.312V7.516H80.0583V6.312H74.0663ZM73.5623 9.602V10.834H80.5203V9.602H73.5623ZM76.4603 4.184V10.246H77.7483V4.184H76.4603ZM73.5483 14.572L73.7443 15.874C75.2983 15.706 77.4263 15.454 79.4563 15.216L79.4143 14.026C77.2583 14.236 75.0183 14.46 73.5483 14.572ZM77.7623 12.43C78.5043 13.676 79.2603 15.314 79.5543 16.336L80.7163 15.846C80.4223 14.81 79.5963 13.2 78.8403 11.996L77.7623 12.43ZM75.8443 10.358C75.5363 11.716 74.9343 13.592 74.4303 14.768L75.5223 15.146C76.0683 14.026 76.7263 12.234 77.2443 10.75L75.8443 10.358Z" fill="white"/>
</svg>
