<svg width="221" height="77" viewBox="0 0 221 77" fill="none" xmlns="http://www.w3.org/2000/svg">
<rect x="0.5" y="0.5" width="220" height="76" rx="4.5" fill="#222222" stroke="#050505"/>
<path d="M86.652 13.808V22.94H87.732V14.168L86.652 13.808ZM85.752 22.796L86.16 23.864C87.24 23.612 88.608 23.264 89.904 22.916L89.772 21.932C88.296 22.268 86.772 22.604 85.752 22.796ZM91.308 12.86C90.288 13.34 88.488 13.784 86.928 14.06C87.072 14.3 87.228 14.708 87.288 14.96C88.92 14.696 90.864 14.288 92.208 13.736L91.308 12.86ZM87.24 17.384V18.464H92.592V17.384H87.24ZM89.304 14.168C89.412 19.016 89.592 23.252 91.092 23.84C91.884 24.308 92.58 23.768 92.784 21.788C92.544 21.632 92.148 21.344 91.944 21.128C91.884 22.196 91.764 22.892 91.596 22.832C90.66 22.556 90.408 18.5 90.396 14.168H89.304ZM83.364 18.632V23.996H84.372V18.632H83.364ZM83.28 12.86C82.98 13.688 82.44 14.852 81.984 15.56L82.764 15.908C83.232 15.236 83.82 14.168 84.288 13.256L83.28 12.86ZM84.744 14.276C84.096 15.584 82.944 17.372 82.02 18.464L82.704 18.848C83.64 17.804 84.828 16.088 85.692 14.732L84.744 14.276ZM81.384 15.572C82.008 16.136 82.752 16.952 83.052 17.516L83.64 16.628C83.316 16.112 82.572 15.344 81.936 14.804L81.384 15.572ZM84.432 17.072C84.948 17.864 85.464 18.92 85.644 19.58L86.508 19.172C86.316 18.5 85.776 17.48 85.248 16.712L84.432 17.072ZM81.312 18.212L81.468 19.232C82.656 19.112 84.228 18.968 85.752 18.812L85.728 17.912C84.096 18.032 82.428 18.164 81.312 18.212ZM84.66 20.048C84.96 20.744 85.26 21.656 85.368 22.244L86.28 21.932C86.16 21.344 85.836 20.444 85.524 19.76L84.66 20.048ZM81.984 19.808C81.864 20.84 81.648 21.92 81.288 22.64C81.528 22.736 81.972 22.94 82.164 23.06C82.524 22.292 82.8 21.116 82.944 19.976L81.984 19.808ZM94.032 14.828V19.076H94.872V15.536H98.568V14.828H94.032ZM98.304 14.828V18.08C98.304 18.176 98.28 18.2 98.172 18.2C98.064 18.212 97.764 18.212 97.428 18.2C97.524 18.416 97.644 18.728 97.68 18.944C98.208 18.944 98.568 18.944 98.82 18.812C99.084 18.68 99.144 18.464 99.144 18.08V14.828H98.304ZM100.608 14.072V14.948H104.46V14.072H100.608ZM96.084 12.884V15.248H96.216V18.956H96.948V15.248H97.08V12.884H96.084ZM100.74 12.884C100.416 13.952 99.816 14.924 99.036 15.548C99.24 15.716 99.6 16.088 99.732 16.268C100.596 15.524 101.304 14.36 101.688 13.076L100.74 12.884ZM95.352 15.932C95.268 16.604 95.172 17.264 94.86 17.78C95.028 17.84 95.292 17.984 95.412 18.068C95.688 17.552 95.868 16.784 95.952 16.028L95.352 15.932ZM94.044 13.472C94.344 13.892 94.668 14.468 94.788 14.852L95.628 14.444C95.496 14.084 95.16 13.532 94.836 13.124L94.044 13.472ZM102.864 14.516C102.408 16.364 101.136 17.492 99.264 18.092C99.444 18.284 99.72 18.728 99.816 18.944C101.88 18.176 103.272 16.856 103.86 14.66L102.864 14.516ZM100.872 14.696L100.056 14.912C100.752 16.892 102.096 18.404 103.98 19.112C104.112 18.86 104.388 18.5 104.592 18.308C102.804 17.744 101.484 16.4 100.872 14.696ZM97.224 16.064C97.404 16.592 97.56 17.252 97.596 17.696L98.16 17.516C98.112 17.096 97.944 16.424 97.74 15.92L97.224 16.064ZM98.34 13.088C98.172 13.52 97.836 14.132 97.584 14.54L98.256 14.84C98.556 14.48 98.916 13.94 99.276 13.436L98.34 13.088ZM98.388 18.968V24.008H99.516V18.968H98.388ZM94.788 19.676V23.444H95.88V20.636H102.792V19.676H94.788ZM102.252 19.676V22.292C102.252 22.448 102.192 22.484 102 22.496C101.808 22.496 101.1 22.496 100.416 22.484C100.56 22.748 100.728 23.144 100.788 23.42C101.76 23.42 102.396 23.432 102.828 23.276C103.248 23.12 103.368 22.832 103.368 22.304V19.676H102.252ZM115.404 13.052C113.952 13.352 111.54 13.556 109.488 13.652C109.584 13.892 109.704 14.264 109.74 14.516C111.84 14.456 114.324 14.252 116.04 13.916L115.404 13.052ZM109.344 15.224V16.208H116.484V15.224H109.344ZM109.68 17.024V22.22H110.712V17.96H115.056V22.136H116.136V17.024H109.68ZM110.292 18.908V19.82H115.476V18.908H110.292ZM110.292 20.816V21.752H115.476V20.816H110.292ZM112.332 13.844V24.008H113.388V13.844H112.332ZM105.288 19.148L105.54 20.264C106.62 19.94 108 19.532 109.308 19.136L109.176 18.128C107.748 18.524 106.272 18.92 105.288 19.148ZM105.504 15.236V16.28H109.188V15.236H105.504ZM107.04 12.884V22.688C107.04 22.868 106.98 22.916 106.824 22.916C106.668 22.928 106.176 22.928 105.66 22.904C105.816 23.216 105.96 23.708 105.996 24.008C106.8 24.008 107.316 23.972 107.676 23.78C108.024 23.6 108.132 23.288 108.132 22.688V12.884H107.04ZM119.736 13.58V14.732H123.132V13.58H119.736ZM122.568 13.58C122.568 15.92 123.024 21.14 127.716 23.972C127.92 23.696 128.376 23.204 128.64 23C124.032 20.276 123.732 15.788 123.732 13.58H122.568ZM122.148 16.052C121.452 19.352 119.976 21.74 117.384 23.072C117.684 23.288 118.212 23.756 118.416 23.996C121.008 22.46 122.592 19.904 123.444 16.292L122.148 16.052ZM130.404 14.096V23.744H131.592V15.248H138.384V23.708H139.62V14.096H130.404ZM130.956 21.572V22.736H139.188V21.572H130.956Z" fill="white"/>
</svg>
