<svg width="219" height="33" viewBox="0 0 219 33" fill="none" xmlns="http://www.w3.org/2000/svg">
<path opacity="0.5" d="M11.043 10.3574H12.9961V24H11.043V10.3574ZM22.0781 10.1816C23.3281 10.1816 24.36 10.8392 25.1738 12.1543C25.9941 13.4629 26.4043 15.1263 26.4043 17.1445C26.4043 19.2148 25.9941 20.8978 25.1738 22.1934C24.36 23.4889 23.3021 24.1367 22 24.1367C20.6784 24.1367 19.6172 23.502 18.8164 22.2324C18.0156 20.9629 17.6152 19.2799 17.6152 17.1836C17.6152 15.1133 18.0286 13.4303 18.8555 12.1348C19.6823 10.8327 20.7565 10.1816 22.0781 10.1816ZM22.0977 12.0371H22C21.2513 12.0371 20.6556 12.4993 20.2129 13.4238C19.7767 14.3418 19.5586 15.5885 19.5586 17.1641C19.5586 18.7786 19.7734 20.0449 20.2031 20.9629C20.6328 21.8809 21.2253 22.3398 21.9805 22.3398C22.7357 22.3398 23.3314 21.8809 23.7676 20.9629C24.2038 20.0449 24.4219 18.7982 24.4219 17.2227C24.4219 15.6406 24.2103 14.3809 23.7871 13.4434C23.3704 12.5059 22.8073 12.0371 22.0977 12.0371ZM32.0781 10.1816C33.3281 10.1816 34.36 10.8392 35.1738 12.1543C35.9941 13.4629 36.4043 15.1263 36.4043 17.1445C36.4043 19.2148 35.9941 20.8978 35.1738 22.1934C34.36 23.4889 33.3021 24.1367 32 24.1367C30.6784 24.1367 29.6172 23.502 28.8164 22.2324C28.0156 20.9629 27.6152 19.2799 27.6152 17.1836C27.6152 15.1133 28.0286 13.4303 28.8555 12.1348C29.6823 10.8327 30.7565 10.1816 32.0781 10.1816ZM32.0977 12.0371H32C31.2513 12.0371 30.6556 12.4993 30.2129 13.4238C29.7767 14.3418 29.5586 15.5885 29.5586 17.1641C29.5586 18.7786 29.7734 20.0449 30.2031 20.9629C30.6328 21.8809 31.2253 22.3398 31.9805 22.3398C32.7357 22.3398 33.3314 21.8809 33.7676 20.9629C34.2038 20.0449 34.4219 18.7982 34.4219 17.2227C34.4219 15.6406 34.2103 14.3809 33.7871 13.4434C33.3704 12.5059 32.8073 12.0371 32.0977 12.0371ZM42.0781 10.1816C43.3281 10.1816 44.36 10.8392 45.1738 12.1543C45.9941 13.4629 46.4043 15.1263 46.4043 17.1445C46.4043 19.2148 45.9941 20.8978 45.1738 22.1934C44.36 23.4889 43.3021 24.1367 42 24.1367C40.6784 24.1367 39.6172 23.502 38.8164 22.2324C38.0156 20.9629 37.6152 19.2799 37.6152 17.1836C37.6152 15.1133 38.0286 13.4303 38.8555 12.1348C39.6823 10.8327 40.7565 10.1816 42.0781 10.1816ZM42.0977 12.0371H42C41.2513 12.0371 40.6556 12.4993 40.2129 13.4238C39.7767 14.3418 39.5586 15.5885 39.5586 17.1641C39.5586 18.7786 39.7734 20.0449 40.2031 20.9629C40.6328 21.8809 41.2253 22.3398 41.9805 22.3398C42.7357 22.3398 43.3314 21.8809 43.7676 20.9629C44.2038 20.0449 44.4219 18.7982 44.4219 17.2227C44.4219 15.6406 44.2103 14.3809 43.7871 13.4434C43.3704 12.5059 42.8073 12.0371 42.0977 12.0371ZM52.0781 10.1816C53.3281 10.1816 54.36 10.8392 55.1738 12.1543C55.9941 13.4629 56.4043 15.1263 56.4043 17.1445C56.4043 19.2148 55.9941 20.8978 55.1738 22.1934C54.36 23.4889 53.3021 24.1367 52 24.1367C50.6784 24.1367 49.6172 23.502 48.8164 22.2324C48.0156 20.9629 47.6152 19.2799 47.6152 17.1836C47.6152 15.1133 48.0286 13.4303 48.8555 12.1348C49.6823 10.8327 50.7565 10.1816 52.0781 10.1816ZM52.0977 12.0371H52C51.2513 12.0371 50.6556 12.4993 50.2129 13.4238C49.7767 14.3418 49.5586 15.5885 49.5586 17.1641C49.5586 18.7786 49.7734 20.0449 50.2031 20.9629C50.6328 21.8809 51.2253 22.3398 51.9805 22.3398C52.7357 22.3398 53.3314 21.8809 53.7676 20.9629C54.2038 20.0449 54.4219 18.7982 54.4219 17.2227C54.4219 15.6406 54.2103 14.3809 53.7871 13.4434C53.3704 12.5059 52.8073 12.0371 52.0977 12.0371Z" fill="white"/>
<path opacity="0.5" d="M92.0215 10.3574H98.0762V12.0957H93.7988V15.543C93.9355 15.5299 94.0755 15.5234 94.2188 15.5234C95.5404 15.5234 96.6276 15.9271 97.4805 16.7344C98.3333 17.5352 98.7598 18.5573 98.7598 19.8008C98.7598 21.0833 98.3366 22.1283 97.4902 22.9355C96.6504 23.7363 95.5599 24.1367 94.2188 24.1367C93.112 24.1367 92.0378 23.8698 90.9961 23.3359V21.3242C91.9792 21.9622 92.9395 22.2812 93.877 22.2812C94.6973 22.2812 95.3841 22.0436 95.9375 21.5684C96.4974 21.0866 96.7773 20.4974 96.7773 19.8008C96.7773 19.0781 96.4746 18.4759 95.8691 17.9941C95.2637 17.5059 94.5085 17.2617 93.6035 17.2617C92.8288 17.2617 92.3014 17.3268 92.0215 17.457V10.3574ZM105.078 10.1816C106.328 10.1816 107.36 10.8392 108.174 12.1543C108.994 13.4629 109.404 15.1263 109.404 17.1445C109.404 19.2148 108.994 20.8978 108.174 22.1934C107.36 23.4889 106.302 24.1367 105 24.1367C103.678 24.1367 102.617 23.502 101.816 22.2324C101.016 20.9629 100.615 19.2799 100.615 17.1836C100.615 15.1133 101.029 13.4303 101.855 12.1348C102.682 10.8327 103.757 10.1816 105.078 10.1816ZM105.098 12.0371H105C104.251 12.0371 103.656 12.4993 103.213 13.4238C102.777 14.3418 102.559 15.5885 102.559 17.1641C102.559 18.7786 102.773 20.0449 103.203 20.9629C103.633 21.8809 104.225 22.3398 104.98 22.3398C105.736 22.3398 106.331 21.8809 106.768 20.9629C107.204 20.0449 107.422 18.7982 107.422 17.2227C107.422 15.6406 107.21 14.3809 106.787 13.4434C106.37 12.5059 105.807 12.0371 105.098 12.0371ZM115.078 10.1816C116.328 10.1816 117.36 10.8392 118.174 12.1543C118.994 13.4629 119.404 15.1263 119.404 17.1445C119.404 19.2148 118.994 20.8978 118.174 22.1934C117.36 23.4889 116.302 24.1367 115 24.1367C113.678 24.1367 112.617 23.502 111.816 22.2324C111.016 20.9629 110.615 19.2799 110.615 17.1836C110.615 15.1133 111.029 13.4303 111.855 12.1348C112.682 10.8327 113.757 10.1816 115.078 10.1816ZM115.098 12.0371H115C114.251 12.0371 113.656 12.4993 113.213 13.4238C112.777 14.3418 112.559 15.5885 112.559 17.1641C112.559 18.7786 112.773 20.0449 113.203 20.9629C113.633 21.8809 114.225 22.3398 114.98 22.3398C115.736 22.3398 116.331 21.8809 116.768 20.9629C117.204 20.0449 117.422 18.7982 117.422 17.2227C117.422 15.6406 117.21 14.3809 116.787 13.4434C116.37 12.5059 115.807 12.0371 115.098 12.0371ZM125.078 10.1816C126.328 10.1816 127.36 10.8392 128.174 12.1543C128.994 13.4629 129.404 15.1263 129.404 17.1445C129.404 19.2148 128.994 20.8978 128.174 22.1934C127.36 23.4889 126.302 24.1367 125 24.1367C123.678 24.1367 122.617 23.502 121.816 22.2324C121.016 20.9629 120.615 19.2799 120.615 17.1836C120.615 15.1133 121.029 13.4303 121.855 12.1348C122.682 10.8327 123.757 10.1816 125.078 10.1816ZM125.098 12.0371H125C124.251 12.0371 123.656 12.4993 123.213 13.4238C122.777 14.3418 122.559 15.5885 122.559 17.1641C122.559 18.7786 122.773 20.0449 123.203 20.9629C123.633 21.8809 124.225 22.3398 124.98 22.3398C125.736 22.3398 126.331 21.8809 126.768 20.9629C127.204 20.0449 127.422 18.7982 127.422 17.2227C127.422 15.6406 127.21 14.3809 126.787 13.4434C126.37 12.5059 125.807 12.0371 125.098 12.0371Z" fill="white"/>
<path opacity="0.5" d="M170.043 10.3574H171.996V24H170.043V10.3574ZM181.078 10.1816C182.328 10.1816 183.36 10.8392 184.174 12.1543C184.994 13.4629 185.404 15.1263 185.404 17.1445C185.404 19.2148 184.994 20.8978 184.174 22.1934C183.36 23.4889 182.302 24.1367 181 24.1367C179.678 24.1367 178.617 23.502 177.816 22.2324C177.016 20.9629 176.615 19.2799 176.615 17.1836C176.615 15.1133 177.029 13.4303 177.855 12.1348C178.682 10.8327 179.757 10.1816 181.078 10.1816ZM181.098 12.0371H181C180.251 12.0371 179.656 12.4993 179.213 13.4238C178.777 14.3418 178.559 15.5885 178.559 17.1641C178.559 18.7786 178.773 20.0449 179.203 20.9629C179.633 21.8809 180.225 22.3398 180.98 22.3398C181.736 22.3398 182.331 21.8809 182.768 20.9629C183.204 20.0449 183.422 18.7982 183.422 17.2227C183.422 15.6406 183.21 14.3809 182.787 13.4434C182.37 12.5059 181.807 12.0371 181.098 12.0371ZM191.078 10.1816C192.328 10.1816 193.36 10.8392 194.174 12.1543C194.994 13.4629 195.404 15.1263 195.404 17.1445C195.404 19.2148 194.994 20.8978 194.174 22.1934C193.36 23.4889 192.302 24.1367 191 24.1367C189.678 24.1367 188.617 23.502 187.816 22.2324C187.016 20.9629 186.615 19.2799 186.615 17.1836C186.615 15.1133 187.029 13.4303 187.855 12.1348C188.682 10.8327 189.757 10.1816 191.078 10.1816ZM191.098 12.0371H191C190.251 12.0371 189.656 12.4993 189.213 13.4238C188.777 14.3418 188.559 15.5885 188.559 17.1641C188.559 18.7786 188.773 20.0449 189.203 20.9629C189.633 21.8809 190.225 22.3398 190.98 22.3398C191.736 22.3398 192.331 21.8809 192.768 20.9629C193.204 20.0449 193.422 18.7982 193.422 17.2227C193.422 15.6406 193.21 14.3809 192.787 13.4434C192.37 12.5059 191.807 12.0371 191.098 12.0371ZM201.078 10.1816C202.328 10.1816 203.36 10.8392 204.174 12.1543C204.994 13.4629 205.404 15.1263 205.404 17.1445C205.404 19.2148 204.994 20.8978 204.174 22.1934C203.36 23.4889 202.302 24.1367 201 24.1367C199.678 24.1367 198.617 23.502 197.816 22.2324C197.016 20.9629 196.615 19.2799 196.615 17.1836C196.615 15.1133 197.029 13.4303 197.855 12.1348C198.682 10.8327 199.757 10.1816 201.078 10.1816ZM201.098 12.0371H201C200.251 12.0371 199.656 12.4993 199.213 13.4238C198.777 14.3418 198.559 15.5885 198.559 17.1641C198.559 18.7786 198.773 20.0449 199.203 20.9629C199.633 21.8809 200.225 22.3398 200.98 22.3398C201.736 22.3398 202.331 21.8809 202.768 20.9629C203.204 20.0449 203.422 18.7982 203.422 17.2227C203.422 15.6406 203.21 14.3809 202.787 13.4434C202.37 12.5059 201.807 12.0371 201.098 12.0371Z" fill="white"/>
<rect opacity="0.5" x="1" y="1" width="63" height="31" rx="2" stroke="white" stroke-width="2"/>
<rect opacity="0.5" x="155" y="1" width="63" height="31" rx="2" stroke="white" stroke-width="2"/>
<rect opacity="0.5" x="78" y="1" width="63" height="31" rx="2" stroke="white" stroke-width="2"/>
</svg>
