<svg width="229" height="287" viewBox="0 0 229 287" fill="none" xmlns="http://www.w3.org/2000/svg">
<g filter="url(#filter0_d_1978_1295)">
<path d="M4 10C4 4.47715 8.47715 0 14 0H215C220.523 0 225 4.47715 225 10V288H4V10Z" fill="url(#paint0_linear_1978_1295)"/>
<path d="M4.5 10C4.5 4.75329 8.75329 0.5 14 0.5H215C220.247 0.5 224.5 4.7533 224.5 10V287.5H4.5V10Z" stroke="#050505"/>
</g>
<path d="M80.91 49.402V50.606H93.104V49.402H80.91ZM86.258 48.184V50.102H87.616V48.184H86.258ZM81.442 51.922V61.162H82.702V53.084H92.11V51.922H81.442ZM91.41 51.922V59.65C91.41 59.86 91.34 59.93 91.102 59.93C90.85 59.944 90.024 59.944 89.184 59.916C89.366 60.252 89.576 60.84 89.632 61.19C90.766 61.19 91.536 61.162 92.054 60.966C92.544 60.756 92.684 60.364 92.684 59.664V51.922H91.41ZM84.97 52.86C84.886 54.176 84.508 54.806 82.688 55.156C82.912 55.366 83.206 55.814 83.304 56.094C85.502 55.576 86.034 54.624 86.16 52.86H84.97ZM87.574 52.86V54.26C87.574 55.254 87.826 55.548 88.932 55.548C89.142 55.548 90.01 55.548 90.248 55.548C91.046 55.548 91.34 55.24 91.452 54.092C91.144 54.022 90.682 53.868 90.458 53.7C90.416 54.47 90.36 54.554 90.094 54.554C89.912 54.554 89.24 54.554 89.086 54.554C88.778 54.554 88.736 54.526 88.736 54.246V52.86H87.574ZM84.34 56.178V60.532H85.53V56.178H84.34ZM85.068 56.178V57.186H88.554V58.712H85.068V59.72H89.758V56.178H85.068ZM83.514 50.592C83.794 51.11 84.074 51.796 84.172 52.244L85.544 51.95C85.418 51.502 85.11 50.844 84.816 50.354L83.514 50.592ZM89.086 50.326C88.904 50.802 88.568 51.516 88.302 51.978L89.604 52.216C89.884 51.796 90.206 51.208 90.542 50.564L89.086 50.326ZM98.354 50.032H103.66V52.356H98.354V50.032ZM97.066 48.772V53.616H105.004V48.772H97.066ZM95.078 54.974V61.176H96.338V56.234H98.9V61.078H100.23V54.974H95.078ZM101.602 54.974V61.176H102.876V56.234H105.662V61.106H106.992V54.974H101.602ZM95.638 59.174V60.448H99.446V59.174H95.638ZM102.232 59.174V60.448H106.292V59.174H102.232ZM115.196 50.06V51.348H120.194V50.06H115.196ZM108.63 49.024V50.256H115.574V49.024H108.63ZM110.366 51.894V53.084H113.88V51.894H110.366ZM110.366 54.806V55.996H113.88V54.806H110.366ZM119.816 50.06V50.354C119.284 55.142 117.352 58.502 114.58 59.944C114.874 60.196 115.252 60.7 115.448 61.036C118.528 59.216 120.53 55.856 121.146 50.242L120.292 50.018L120.054 50.06H119.816ZM116.638 51.404L115.364 51.642C116.246 55.968 117.8 59.314 120.796 61.064C121.006 60.714 121.426 60.21 121.72 59.958C118.92 58.488 117.352 55.268 116.638 51.404ZM109.666 49.514V58.628H110.926V49.514H109.666ZM113.348 49.514V61.162H114.622V49.514H113.348ZM108.322 58.194L108.574 59.51C110.03 59.286 112.018 58.978 113.894 58.656L113.824 57.438C111.808 57.746 109.708 58.026 108.322 58.194ZM124.156 59.034V60.336H133.9V59.034H124.156ZM128.23 48.296V59.804H129.602V48.296H128.23ZM123.498 55.31V61.19H124.842V55.31H123.498ZM133.186 55.31V61.162H134.558V55.31H133.186ZM124.044 49.514V54.47H133.998V49.514H132.612V53.182H125.36V49.514H124.044ZM137.638 49.612V60.868H139.024V50.956H146.948V60.826H148.39V49.612H137.638ZM138.282 58.334V59.692H147.886V58.334H138.282Z" fill="white"/>
<path d="M112.806 88.3006C113.59 89.5497 115.41 89.5497 116.194 88.3006L123.403 76.8131C124.239 75.4811 123.282 73.75 121.709 73.75H107.291C105.718 73.75 104.761 75.4811 105.597 76.8131L112.806 88.3006Z" fill="white"/>
<defs>
<filter id="filter0_d_1978_1295" x="0" y="0" width="229" height="296" filterUnits="userSpaceOnUse" color-interpolation-filters="sRGB">
<feFlood flood-opacity="0" result="BackgroundImageFix"/>
<feColorMatrix in="SourceAlpha" type="matrix" values="0 0 0 0 0 0 0 0 0 0 0 0 0 0 0 0 0 0 127 0" result="hardAlpha"/>
<feOffset dy="4"/>
<feGaussianBlur stdDeviation="2"/>
<feComposite in2="hardAlpha" operator="out"/>
<feColorMatrix type="matrix" values="0 0 0 0 0 0 0 0 0 0 0 0 0 0 0 0 0 0 0.25 0"/>
<feBlend mode="normal" in2="BackgroundImageFix" result="effect1_dropShadow_1978_1295"/>
<feBlend mode="normal" in="SourceGraphic" in2="effect1_dropShadow_1978_1295" result="shape"/>
</filter>
<linearGradient id="paint0_linear_1978_1295" x1="115" y1="5" x2="115" y2="249.5" gradientUnits="userSpaceOnUse">
<stop stop-color="#8D8D8D"/>
<stop offset="1" stop-color="#B7B7B7"/>
</linearGradient>
</defs>
</svg>
