<svg width="113" height="113" viewBox="0 0 113 113" fill="none" xmlns="http://www.w3.org/2000/svg">
<circle cx="56.6014" cy="56.6014" r="35.6014" fill="#E0E0E0"/>
<circle cx="56.4101" cy="47.2226" r="12.4413" fill="white"/>
<ellipse cx="56.6014" cy="87.2264" rx="22.9686" ry="22.203" fill="white"/>
<path d="M113 56.5C113 87.7041 87.7041 113 56.5 113C25.2959 113 0 87.7041 0 56.5C0 25.2959 25.2959 0 56.5 0C87.7041 0 113 25.2959 113 56.5ZM20.9961 56.5C20.9961 76.1083 36.8917 92.0039 56.5 92.0039C76.1083 92.0039 92.0039 76.1083 92.0039 56.5C92.0039 36.8917 76.1083 20.9961 56.5 20.9961C36.8917 20.9961 20.9961 36.8917 20.9961 56.5Z" fill="#FAFAFA"/>
</svg>
